#!OML:ASF E:/inclinewalkrobotboard/Project1/Captureday1/Session1/subject1.ASF
:FULLY-SPECIFIED
:DEGREES
213
root 0 0 0 -0.5093235405473464 -3.016837758927415 -0.19511607742222037
lowerback 11.216202181398389 0.6352847615724779 0.3996409760892663
upperback -1.9403325923141796 0.928330366865437 0.49749984629887406
thorax -8.373194253073656 0.4321715748649506 0.10978609364535957
lowerneck -11.417134625208249 -0.632208151148308 1.3470196547645563
upperneck 18.859943105175596 -0.2540263571827388 -3.8979152713187744
head 7.824139882016452 -0.31605411366072755 -1.5693783884339223
rclavicle -5.483505991538502E-16 -6.197411280495407E-16
rhumerus -0.5288371639608318 0.9069184322272541 -60.21472252034712
rradius 53.335758750356646
rwrist 17.4510880710116
rhand -27.240522644995586 -23.42714990467252
rfingers 7.125019999999925
rthumb -0.8339677936855976 -53.56394147791417
lclavicle -4.9013781453004165E-16 -6.928926255509771E-16
lhumerus -1.3004844723143982 -6.923654032797263 60.491698762033806
lradius 52.633379772987965
lwrist -11.12951047213319
lhand -37.268091941521256 -31.210050765807686
lfingers 7.12501999999992
lthumb -10.370766894046895 -1.6564157397610408
rfemur -21.385389140561372 -0.34268566914434473 19.542869717127846
rtibia 50.61715363829893
rfoot -22.77314265920438 -13.8552655796894
rtoes -12.231064641551104
lfemur -23.128531310664084 1.5474452909396417 -18.142010175263124
ltibia 50.12505456628427
lfoot -25.957052802292786 -3.6531861774683616
ltoes -16.720028140017895
214
root 0 0 0 -0.5122839518631251 -3.0159126405006838 -0.19804979954323554
lowerback 11.215100258151086 0.6348143274253855 0.4002638211153411
upperback -1.9365821376033434 0.9279237249048323 0.4991944533409705
thorax -8.36842098135698 0.43203433259160395 0.11128400836187374
lowerneck -11.425122647931909 -0.6355789188913538 1.3420842252267362
upperneck 18.860487951612676 -0.25904800729959376 -3.8914015805508457
head 7.825619274166233 -0.3182467927807736 -1.566912823093524
rclavicle -5.486249995134989E-16 -6.203727329277818E-16
rhumerus -0.5209055492739445 0.912435022130829 -60.20904127096413
rradius 53.343607544215374
rwrist 17.455374330438907
rhand -27.243601812759177 -23.44166005546949
rfingers 7.125019999999925
rthumb -0.8371293350546365 -53.57919599343773
lclavicle -4.90051190040093E-16 -6.937082612865246E-16
lhumerus -1.2835347314494427 -6.92786217027863 60.47975192620991
lradius 52.6487366105826
lwrist -11.138699164447548
lhand -37.27445766472528 -31.239580236492856
lfingers 7.12501999999992
lthumb -10.376487222460565 -1.6882276779735754
rfemur -21.379275024343244 -0.338819053436771 19.547943574597845
rtibia 50.60856442294208
rfoot -22.761764875204406 -13.84939008946589
rtoes -12.218635514769055
lfemur -23.12071386123139 1.5455886025693057 -18.14302640639096
ltibia 50.11591461062293
lfoot -25.94583523385006 -3.6529560314106115
ltoes -16.713411874957643
215
root 0 0 0 -0.5103117380429828 -3.01653179244818 -0.19614432727119846
lowerback 11.21581906832242 0.6351266806626402 0.39986816497166955
upperback -1.9390499000907981 0.9282176432011588 0.4980923561375124
thorax -8.371582798847502 0.4321276459626083 0.11030863585074618
lowerneck -11.41988729484871 -0.6333506127585867 1.345349725807404
upperneck 18.86015975282315 -0.25576683255891264 -3.895682885232551
head 7.824668346631099 -0.3168175652096168 -1.568545910729289
rclavicle -5.483163251909402E-16 -6.199328981692241E-16
rhumerus -0.5192394930371265 0.9132593530105417 -60.208925003815864
rradius 53.34457334733412
rwrist 17.455574567095915
rhand -27.243768978545766 -23.442535123730693
rfingers 7.125019999999925
rthumb -0.8370182458718496 -53.579143491787576
lclavicle -4.899349482362864E-16 -6.930056009694103E-16
lhumerus -1.287082442615926 -6.926886948067212 60.48225548068184
lradius 52.64377887509198
lwrist -11.136502373172728
lhand -37.272595102444456 -31.233546443385016
lfingers 7.12501999999992
lthumb -10.375046239187382 -1.67997530535526
rfemur -21.37994789588309 -0.3392851291203782 19.54734373294925
rtibia 50.60962553391891
rfoot -22.763133558052477 -13.850424215112898
rtoes -12.220576215948075
lfemur -23.130927825521923 1.5480513224440484 -18.14172651582291
ltibia 50.12835915241067
lfoot -25.960492660709516 -3.6534325050997882
ltoes -16.722333005538
216
root 0 0 0 -0.5096150536856665 -3.0167838704630014 -0.19547403078984193
lowerback 11.216091159547473 0.6352586098565842 0.3997524108197238
upperback -1.939952089377086 0.9283267424674457 0.4976758644740278
thorax -8.37272630722408 0.4321631216994036 0.10991580757060404
lowerneck -11.41795670828032 -0.6325652344817786 1.3465245038254108
upperneck 18.860016439296626 -0.2545548700552429 -3.897250499887834
head 7.824301823767087 -0.31628237147024385 -1.5691275635557238
rclavicle -5.483684482521089E-16 -6.198364457748252E-16
rhumerus -0.5207443259610791 0.9122493131856082 -60.20987587987644
rradius 53.343143671216296
rwrist 17.454811038509654
rhand -27.243226874586178 -23.440077024325774
rfingers 7.125019999999925
rthumb -0.8364937954588951 -53.57676045596626
lclavicle -4.900465616034987E-16 -6.929224024324574E-16
lhumerus -1.294860455910456 -6.924985171695561 60.4877138713094
lradius 52.63769359743844
lwrist -11.132457117442804
lhand -37.26997252252563 -31.219862040256892
lfingers 7.12501999999992
lthumb -10.372561356848832 -1.6663364038759951
rfemur -21.381412923608487 -0.3402869536407538 19.546096895307937
rtibia 50.61195311973148
rfoot -22.766046352145814 -13.851805269788564
rtoes -12.223552604969111
lfemur -23.133270689270965 1.5485983947125788 -18.141503625363054
ltibia 50.13083278329732
lfoot -25.963663457601825 -3.6534627126851005
ltoes -16.72435636826207
